<svg xmlns="http://www.w3.org/2000/svg">
<symbol id="reno-icon-alert"><path d="M10.82 10.18V6.82H9.18v3.36h1.64zm0 3.32v-1.68H9.18v1.68h1.64zM.82 16L10 .18 19.18 16H.82z"/>
</symbol>
<symbol id="reno-icon-book-open-page-variant"><path d="M15 0v9.14l-4.14 3.75V3.75L15 0zM4.61 2.5a9.02 9.02 0 0 1 2.421.254 5.816 5.816 0 0 1 2.149.996V15c.599-.365 1.328-.664 2.187-.898.86-.235 1.654-.352 2.383-.352a9.156 9.156 0 0 1 2.93.39V2.89a6.016 6.016 0 0 1 1.68.86v12.148a.58.58 0 0 1-.157.274.447.447 0 0 1-.254.137.368.368 0 0 1-.215-.02 7.45 7.45 0 0 0-1.914-.684 9.253 9.253 0 0 0-2.09-.195c-.716.013-1.503.13-2.363.352-.86.221-1.588.514-2.187.879a6.197 6.197 0 0 0-2.149-.957 10.267 10.267 0 0 0-2.422-.293 8.77 8.77 0 0 0-2.011.254 9.766 9.766 0 0 0-1.973.683l-.195.04a.443.443 0 0 1-.293-.118.39.39 0 0 1-.137-.313V3.75a5.816 5.816 0 0 1 2.148-.996A9.197 9.197 0 0 1 4.61 2.5z"/>
</symbol>
<symbol id="reno-icon-calendar"><path d="M13.32 15V5.86H1.68V15h11.64zm-2.5-15h1.68v1.68h.82c.47 0 .866.156 1.192.468.325.313.488.717.488 1.211V15c0 .469-.163.866-.488 1.191a1.621 1.621 0 0 1-1.192.489H1.68c-.47 0-.866-.163-1.192-.489A1.621 1.621 0 0 1 0 15V3.36c0-.495.156-.9.469-1.212.312-.312.716-.468 1.21-.468H2.5V0h1.68v1.68h6.64V0zm.86 9.18v4.18H7.5V9.18h4.18z"/>
</symbol>
<symbol id="reno-icon-chart-bar"><path d="M17.32 15H.68V0h1.64v13.32H4v-7.5h3.32v7.5H9V2.5h3.32v10.82H14V9.18h3.32z"/>
</symbol>
<symbol id="reno-icon-chart-gantt"><path d="M.68 2.68h6.64V.18H9v16.64H7.32V13.5H4V11h3.32V9.32h-5v-2.5h5V5.18H.68v-2.5zm10 0h2.5v2.5h-2.5v-2.5zm0 4.14h4.14v2.5h-4.14v-2.5zm0 4.18h6.64v2.5h-6.64V11z"/>
</symbol>
<symbol id="reno-icon-check"><path d="M15.5 1.32l-10 10L.93 6.75l1.172-1.172L5.5 8.977 14.328.148z"/>
</symbol>
<symbol id="reno-icon-checkbox"><path d="M10 17l-5-5 1.41-1.42L10 14.17l7.59-7.59L19 8m-7-6A10 10 0 0 0 2 12a10 10 0 0 0 10 10 10 10 0 0 0 10-10A10 10 0 0 0 12 2z"/>
</symbol>
<symbol id="reno-icon-chevron-down"><path d="M1.172.648L5 4.477 8.828.648 10 1.82l-5 5-5-5z"/>
</symbol>
<symbol id="reno-icon-chevron-left"><path d="M6.852 9.328L3.023 5.5l3.829-3.828L5.68.5l-5 5 5 5z"/>
</symbol>
<symbol id="reno-icon-chevron-right"><path d="M.148 9.328L3.977 5.5.148 1.672 1.32.5l5 5-5 5z"/>
</symbol>
<symbol id="reno-icon-chevron-up"><path d="M1.172 6.352L5 2.523l3.828 3.829L10 5.18l-5-5-5 5z"/>
</symbol>
<symbol id="reno-icon-close-circle-outline"><path d="M9 15.18c1.875-.052 3.444-.71 4.707-1.973 1.263-1.263 1.92-2.832 1.973-4.707-.052-1.875-.71-3.444-1.973-4.707C12.444 2.53 10.875 1.873 9 1.82c-1.875.052-3.444.71-4.707 1.973C3.03 5.056 2.373 6.625 2.32 8.5c.052 1.875.71 3.444 1.973 4.707C5.556 14.47 7.125 15.127 9 15.18zm0-15c2.37.052 4.336.86 5.898 2.422 1.563 1.562 2.37 3.528 2.422 5.898-.052 2.37-.86 4.336-2.422 5.898-1.562 1.563-3.528 2.37-5.898 2.422-2.37-.052-4.336-.86-5.898-2.422C1.539 12.836.732 10.87.68 8.5c.052-2.37.86-4.336 2.422-5.898C4.664 1.039 6.63.232 9 .18zm2.148 5l1.172 1.172L10.172 8.5l2.148 2.148-1.172 1.172L9 9.672 6.852 11.82 5.68 10.648 7.828 8.5 5.68 6.352 6.852 5.18 9 7.328l2.148-2.148z"/>
</symbol>
<symbol id="reno-icon-close-circle"><path d="M9 .18c2.37.052 4.336.86 5.898 2.422 1.563 1.562 2.37 3.528 2.422 5.898-.052 2.37-.86 4.336-2.422 5.898-1.562 1.563-3.528 2.37-5.898 2.422-2.37-.052-4.336-.86-5.898-2.422C1.539 12.836.732 10.87.68 8.5c.052-2.37.86-4.336 2.422-5.898C4.664 1.039 6.63.232 9 .18zm3.008 4.14L9 7.328 5.992 4.32 4.82 5.492 7.828 8.5 4.82 11.508l1.172 1.172L9 9.672l3.008 3.008 1.172-1.172L10.172 8.5l3.008-3.008-1.172-1.172z"/>
</symbol>
<symbol id="reno-icon-comment-processing-outline"><path d="M5.82 16.64a.795.795 0 0 1-.586-.234A.795.795 0 0 1 5 15.82v-2.5H1.64c-.468 0-.859-.162-1.171-.488A1.656 1.656 0 0 1 0 11.641v-10C0 1.17.156.78.469.469.78.156 1.172 0 1.64 0H15c.469 0 .86.156 1.172.469.312.312.469.703.469 1.172v10c0 .468-.157.866-.47 1.191A1.557 1.557 0 0 1 15 13.32H9.922l-3.086 3.086a.886.886 0 0 1-.586.235h-.43zm.82-5v2.579L9.22 11.64H15v-10H1.64v10h5zM12.5 7.5h-1.68V5.82h1.68V7.5zm-3.36 0H7.5V5.82h1.64V7.5zm-3.32 0H4.14V5.82h1.68V7.5z"/>
</symbol>
<symbol id="reno-icon-content-duplicate"><path d="M7.5 13.36H1.64a1.734 1.734 0 0 1-1.171-.508C.156 12.539 0 12.148 0 11.68v-10C0 1.21.156.82.469.508A1.734 1.734 0 0 1 1.64 0h10v1.68h-10v10H7.5V10l3.32 2.5L7.5 15v-1.64zm6.64 3.32V5H5v5H3.32V5c0-.469.163-.86.489-1.172A1.656 1.656 0 0 1 5 3.36h9.14c.47 0 .867.157 1.192.47.326.312.488.702.488 1.171v11.68c0 .468-.162.86-.488 1.172a1.809 1.809 0 0 1-1.191.507H5a1.809 1.809 0 0 1-1.191-.507 1.557 1.557 0 0 1-.489-1.172V15H5v1.68h9.14z"/>
</symbol>
<symbol id="reno-icon-contrast"><path d="M1.633 14.922a1.639 1.639 0 0 1-1.055-1.055L14.368.078c.52.182.872.534 1.054 1.055L1.632 14.922zM14.68 10.82v1.68H8.82v-1.68h5.86zM.5 2.5H3V0h1.68v2.5h2.5v1.68h-2.5v2.5H3v-2.5H.5V2.5z"/>
</symbol>
<symbol id="reno-icon-delete"><path d="M19 4h-3.5l-1-1h-5l-1 1H5v2h14M6 19a2 2 0 0 0 2 2h8a2 2 0 0 0 2-2V7H6v12z"/>
</symbol>
<symbol id="reno-icon-dots-vertical"><path d="M2 10.82c.469.026.86.196 1.172.508.312.313.469.703.469 1.172s-.157.86-.47 1.172c-.312.312-.702.469-1.171.469-.469 0-.86-.157-1.172-.47C.516 13.36.36 12.97.36 12.5c0-.469.157-.86.47-1.172A1.734 1.734 0 0 1 2 10.82zm0-5c.469.026.86.196 1.172.508.312.313.469.703.469 1.172s-.157.86-.47 1.172C2.86 8.984 2.47 9.14 2 9.14c-.469 0-.86-.157-1.172-.47C.516 8.36.36 7.97.36 7.5c0-.469.157-.86.47-1.172A1.734 1.734 0 0 1 2 5.82zm0-5c.469.026.86.196 1.172.508.312.313.469.703.469 1.172s-.157.86-.47 1.172C2.86 3.984 2.47 4.14 2 4.14c-.469 0-.86-.157-1.172-.47C.516 3.36.36 2.97.36 2.5c0-.469.157-.86.47-1.172A1.734 1.734 0 0 1 2 .82z"/>
</symbol>
<symbol id="reno-icon-download"><path d="M.18 14.18h11.64V12.5H.18v1.68zM11.82 5H8.5V0h-5v5H.18L6 10.82 11.82 5z"/>
</symbol>
<symbol id="reno-icon-drag-vertical"><path d="M.5 0h1.68v1.68H.5V0zm3.32 0H5.5v1.68H3.82V0zM.5 3.32h1.68V5H.5V3.32zm3.32 0H5.5V5H3.82V3.32zM.5 6.68h1.68v1.64H.5V6.68zm3.32 0H5.5v1.64H3.82V6.68zM.5 10h1.68v1.68H.5V10zm3.32 0H5.5v1.68H3.82V10zM.5 13.32h1.68V15H.5v-1.68zm3.32 0H5.5V15H3.82v-1.68z"/>
</symbol>
<symbol id="reno-icon-eye-off"><path d="M9.844 5H10c.703.026 1.29.273 1.758.742.469.469.716 1.055.742 1.758v.117L9.844 5zm-3.555.664A4.457 4.457 0 0 0 5.82 7.5c.026 1.172.437 2.155 1.23 2.95.795.793 1.778 1.204 2.95 1.23a4.457 4.457 0 0 0 1.836-.47l-1.29-1.288A1.982 1.982 0 0 1 10 10c-.703-.026-1.29-.273-1.758-.742-.469-.469-.716-1.055-.742-1.758 0-.182.026-.365.078-.547L6.29 5.664zm-4.61-4.61L2.735 0 17.5 14.766l-1.055 1.054-2.812-2.773c-1.12.469-2.33.703-3.633.703-2.11-.026-3.978-.612-5.605-1.758A10.014 10.014 0 0 1 .82 7.5c.677-1.693 1.72-3.086 3.125-4.18l-.39-.351L1.68 1.055zM10 3.32a4.806 4.806 0 0 0-1.523.313L6.68 1.836A9.378 9.378 0 0 1 10 1.25c2.11.026 3.978.612 5.605 1.758A10.014 10.014 0 0 1 19.18 7.5a10.159 10.159 0 0 1-2.89 3.945l-2.423-2.422c.209-.468.313-.976.313-1.523-.026-1.172-.437-2.155-1.23-2.95-.795-.793-1.778-1.204-2.95-1.23z"/>
</symbol>
<symbol id="reno-icon-eye"><path d="M10 4c.703.026 1.29.273 1.758.742.469.469.703 1.055.703 1.758 0 .703-.234 1.29-.703 1.758-.469.469-1.055.703-1.758.703-.703 0-1.29-.234-1.758-.703-.469-.469-.703-1.055-.703-1.758 0-.703.234-1.29.703-1.758C8.711 4.273 9.297 4.026 10 4zm0 6.68c1.172-.026 2.155-.437 2.95-1.23.793-.795 1.204-1.778 1.23-2.95-.026-1.172-.437-2.155-1.23-2.95-.795-.793-1.778-1.204-2.95-1.23-1.172.026-2.155.437-2.95 1.23-.793.795-1.204 1.778-1.23 2.95.026 1.172.437 2.155 1.23 2.95.795.793 1.778 1.204 2.95 1.23zM10 .25c2.11.026 3.978.612 5.605 1.758A10.014 10.014 0 0 1 19.18 6.5a10.014 10.014 0 0 1-3.575 4.492C13.978 12.138 12.11 12.724 10 12.75c-2.11-.026-3.978-.612-5.605-1.758A10.014 10.014 0 0 1 .82 6.5a10.014 10.014 0 0 1 3.575-4.492C6.022.862 7.89.276 10 .25z"/>
</symbol>
<symbol id="reno-icon-file-document-box"><path d="M9.68 11.68V10H3.82v1.68h5.86zm2.5-3.36V6.68H3.82v1.64h8.36zm0-3.32V3.32H3.82V5h8.36zm1.64-5c.47 0 .866.156 1.192.469.325.312.488.716.488 1.21V13.32c0 .47-.163.866-.488 1.192A1.621 1.621 0 0 1 13.82 15H2.18c-.47 0-.866-.163-1.192-.488A1.621 1.621 0 0 1 .5 13.32V1.68C.5 1.185.656.78.969.469 1.28.156 1.685 0 2.179 0H13.82z"/>
</symbol>
<symbol id="reno-icon-file-document"><path d="M7.82 6h4.61L7.82 1.43V6zM2 .18h6.68l5 5v10c-.026.468-.196.86-.508 1.172-.313.312-.703.468-1.172.468H2c-.469 0-.86-.156-1.172-.468A1.734 1.734 0 0 1 .32 15.18V1.82C.346 1.352.516.96.828.648 1.141.336 1.531.18 2 .18zM9.5 13.5v-1.68H2v1.68h7.5zm2.5-3.32V8.5H2v1.68h10z"/>
</symbol>
<symbol id="reno-icon-gear"><path d="M12 15.5A3.5 3.5 0 0 1 8.5 12 3.5 3.5 0 0 1 12 8.5a3.5 3.5 0 0 1 3.5 3.5 3.5 3.5 0 0 1-3.5 3.5m7.43-2.53c.04-.32.07-.64.07-.97 0-.33-.03-.66-.07-1l2.11-1.63c.19-.15.24-.42.12-.64l-2-3.46c-.12-.22-.39-.31-.61-.22l-2.49 1c-.52-.39-1.06-.73-1.69-.98l-.37-2.65A.506.506 0 0 0 14 2h-4c-.25 0-.46.18-.5.42l-.37 2.65c-.63.25-1.17.59-1.69.98l-2.49-1c-.22-.09-.49 0-.61.22l-2 3.46c-.13.22-.07.49.12.64L4.57 11c-.04.34-.07.67-.07 1 0 .33.03.65.07.97l-2.11 1.66c-.19.15-.25.42-.12.64l2 3.46c.12.22.39.3.61.22l2.49-1.01c.52.4 1.06.74 1.69.99l.37 2.65c.04.24.25.42.5.42h4c.25 0 .46-.18.5-.42l.37-2.65c.63-.26 1.17-.59 1.69-.99l2.49 1.01c.22.08.49 0 .61-.22l2-3.46c.12-.22.07-.49-.12-.64l-2.11-1.66z"/>
</symbol>
<symbol id="reno-icon-grid"><path d="M10 4v4h4V4h-4m6 0v4h4V4h-4m0 6v4h4v-4h-4m0 6v4h4v-4h-4m-2 4v-4h-4v4h4m-6 0v-4H4v4h4m0-6v-4H4v4h4m0-6V4H4v4h4m2 6h4v-4h-4v4M4 2h16a2 2 0 0 1 2 2v16a2 2 0 0 1-2 2H4c-1.08 0-2-.9-2-2V4a2 2 0 0 1 2-2z"/>
</symbol>
<symbol id="reno-icon-group"><path d="M5.86 5.86v3.32H10V5.86H5.86zM0 0h3.36v.86H15V0h3.36v3.36h-.86V15h.86v3.36H15v-.86H3.36v.86H0V15h.86V3.36H0V0zm3.36 15v.86H15V15h.86V3.36H15V2.5H3.36v.86H2.5V15h.86zm.82-10.82h7.5V7.5h2.5v6.68H5.86v-3.32H4.18V4.18zm7.5 6.68H7.5v1.64h5V9.18h-.82v1.68z"/>
</symbol>
<symbol id="reno-icon-home"><path d="M7.32 14.18v-5h3.36v5h4.14V7.5h2.5L9 0 .68 7.5h2.5v6.68z"/>
</symbol>
<symbol id="reno-icon-information-outline"><path d="M8.18 6V4.32h1.64V6H8.18zM9 15.18c1.875-.052 3.444-.71 4.707-1.973 1.263-1.263 1.92-2.832 1.973-4.707-.052-1.875-.71-3.444-1.973-4.707C12.444 2.53 10.875 1.873 9 1.82c-1.875.052-3.444.71-4.707 1.973C3.03 5.056 2.373 6.625 2.32 8.5c.052 1.875.71 3.444 1.973 4.707C5.556 14.47 7.125 15.127 9 15.18zm0-15c2.37.052 4.336.86 5.898 2.422 1.563 1.562 2.37 3.528 2.422 5.898-.052 2.37-.86 4.336-2.422 5.898-1.562 1.563-3.528 2.37-5.898 2.422-2.37-.052-4.336-.86-5.898-2.422C1.539 12.836.732 10.87.68 8.5c.052-2.37.86-4.336 2.422-5.898C4.664 1.039 6.63.232 9 .18zm-.82 12.5v-5h1.64v5H8.18z"/>
</symbol>
<symbol id="reno-icon-loading"><path d="M12 4V2A10 10 0 0 0 2 12h2a8 8 0 0 1 8-8z"/>
</symbol>
<symbol id="reno-icon-logout"><path d="M12.5 12.695V10H6.64V6.64h5.86V3.946l4.375 4.375-4.375 4.375zM9.14 0c.47 0 .867.156 1.192.469.326.312.488.703.488 1.172V5H9.14V1.64h-7.5V15h7.5v-3.36h1.68V15c0 .469-.162.86-.488 1.172a1.656 1.656 0 0 1-1.191.469h-7.5c-.47 0-.86-.157-1.172-.47C.156 15.86 0 15.47 0 15V1.64C0 1.173.156.782.469.47.78.156 1.172 0 1.64 0h7.5z"/>
</symbol>
<symbol id="reno-icon-magnify"><path d="M5.93 0c1.536.026 2.812.553 3.828 1.582 1.015 1.029 1.536 2.311 1.562 3.848 0 .677-.11 1.315-.332 1.914a4.993 4.993 0 0 1-.957 1.601l.235.235h.664l4.14 4.14-1.25 1.25-4.14-4.14v-.664l-.235-.235a4.993 4.993 0 0 1-1.601.957 5.477 5.477 0 0 1-1.914.332c-1.537-.026-2.82-.547-3.848-1.562C1.053 8.242.526 6.966.5 5.43c.026-1.537.553-2.82 1.582-3.848C3.111.553 4.393.026 5.93 0zm0 1.68c-1.068.026-1.953.39-2.657 1.093C2.57 3.477 2.22 4.362 2.22 5.43c0 1.067.351 1.953 1.054 2.656.704.703 1.589 1.055 2.657 1.055 1.067 0 1.953-.352 2.656-1.055.703-.703 1.055-1.589 1.055-2.656 0-1.068-.352-1.953-1.055-2.657C7.883 2.07 6.997 1.706 5.93 1.68z"/>
</symbol>
<symbol id="reno-icon-menu-down"><path d="M.82.82L5 5 9.18.82z"/>
</symbol>
<symbol id="reno-icon-menu-right"><path d="M.32 8.68L4.5 4.5.32.32z"/>
</symbol>
<symbol id="reno-icon-menu-up"><path d="M.82 5L5 .82 9.18 5z"/>
</symbol>
<symbol id="reno-icon-menu"><path d="M3 6h18v2H3V6m0 5h18v2H3v-2m0 5h18v2H3v-2z"/>
</symbol>
<symbol id="reno-icon-pencil"><path d="M15.266 3.36l-1.524 1.523-3.125-3.125L12.141.234A.795.795 0 0 1 12.727 0c.234 0 .43.078.585.234l1.954 1.954a.795.795 0 0 1 .234.585c0 .235-.078.43-.234.586zM.5 11.874l9.219-9.219 3.125 3.125L3.625 15H.5v-3.125z"/>
</symbol>
<symbol id="reno-icon-priority-low"><path d="M10.68.68h6.64v1.64h-6.64V.68zm0 4.57h6.64v1.68h-6.64V5.25zm0 4.57h6.64v1.68h-6.64V9.82zm-10-3.75c.026-1.51.553-2.78 1.582-3.808C3.29 1.233 4.56.706 6.07.68H9v1.64H6.07c-1.067.026-1.953.39-2.656 1.094-.703.703-1.055 1.589-1.055 2.656 0 1.068.352 1.953 1.055 2.657.703.703 1.589 1.067 2.656 1.093h.43V8.18l2.5 2.5-2.5 2.5V11.5h-.43c-1.51-.052-2.78-.586-3.808-1.602C1.233 8.883.706 7.607.68 6.07z"/>
</symbol>
<symbol id="reno-icon-settings"><path d="M9 11.43c.833-.026 1.523-.313 2.07-.86.547-.547.82-1.237.82-2.07 0-.833-.273-1.523-.82-2.07-.547-.547-1.237-.82-2.07-.82-.833 0-1.523.273-2.07.82-.547.547-.82 1.237-.82 2.07 0 .833.273 1.523.82 2.07.547.547 1.237.834 2.07.86zm6.21-2.11l1.759 1.367c.156.157.182.339.078.547l-1.68 2.891c-.104.182-.273.234-.508.156l-2.07-.82a5.386 5.386 0 0 1-1.406.82l-.313 2.188c-.052.234-.182.351-.39.351H7.32c-.208 0-.338-.117-.39-.351l-.313-2.188a5.386 5.386 0 0 1-1.406-.82l-2.07.82c-.235.078-.404.026-.508-.156l-1.68-2.89c-.104-.209-.078-.391.078-.547L2.79 9.32a8.25 8.25 0 0 1-.039-.82c0-.286.013-.56.04-.82L1.03 6.313C.875 6.155.85 5.973.953 5.766l1.68-2.891c.104-.182.273-.234.508-.156l2.07.82a5.386 5.386 0 0 1 1.406-.82L6.93.53c.052-.234.182-.351.39-.351h3.36c.208 0 .338.117.39.351l.313 2.188c.52.208.99.482 1.406.82l2.07-.82c.235-.078.404-.026.508.156l1.68 2.89c.104.209.078.391-.078.548L15.21 7.68c.026.26.039.534.039.82 0 .286-.013.56-.04.82z"/>
</symbol>
<symbol id="reno-icon-star-outline"><path d="M9 11.313l3.125 1.914-.82-3.594 2.773-2.383-3.672-.313L9 3.579l-1.406 3.36-3.672.312 2.773 2.383-.82 3.594L9 11.312zm8.32-5.118l-4.53 3.946L14.155 16 9 12.875 3.844 16l1.367-5.86L.68 6.196l5.976-.508L9 .18l2.344 5.508 5.976.507z"/>
</symbol>
<symbol id="reno-icon-star"><path d="M9 12.875L14.156 16l-1.367-5.859 4.531-3.946-5.976-.507L9 .18 6.656 5.688.68 6.195l4.531 3.946L3.844 16z"/>
</symbol>
<symbol id="reno-icon-subdirectory-arrow-right"><path d="M12.82 10l-5 5-1.172-1.172 3.008-3.008H.32v-10H2v8.36h7.656L6.648 6.172 7.82 5z"/>
</symbol>
<symbol id="reno-icon-table-large"><path d="M1.64 0H15c.469 0 .86.163 1.172.488.312.326.469.723.469 1.192v12.5c0 .468-.157.86-.47 1.172-.312.312-.702.468-1.171.468H1.64c-.468 0-.859-.156-1.171-.468C.156 15.039 0 14.648 0 14.18V1.68C0 1.21.156.814.469.488A1.557 1.557 0 0 1 1.64 0zm0 3.32v2.5H5v-2.5H1.64zm5 0v2.5H10v-2.5H6.64zM15 5.82v-2.5h-3.36v2.5H15zM1.64 7.5V10H5V7.5H1.64zm0 6.68H5v-2.5H1.64v2.5zm5-6.68V10H10V7.5H6.64zm0 6.68H10v-2.5H6.64v2.5zm8.36 0v-2.5h-3.36v2.5H15zm0-6.68h-3.36V10H15V7.5z"/>
</symbol>
<symbol id="reno-icon-table"><path d="M1.68 0h11.64c.47.026.866.195 1.192.508.325.312.488.703.488 1.172v10c0 .468-.163.86-.488 1.172a1.809 1.809 0 0 1-1.192.507H1.68a1.809 1.809 0 0 1-1.192-.507A1.557 1.557 0 0 1 0 11.68v-10C0 1.21.163.82.488.508A1.809 1.809 0 0 1 1.68 0zm0 3.36v3.32h5V3.36h-5zm6.64 0v3.32h5V3.36h-5zm-6.64 5v3.32h5V8.36h-5zm6.64 0v3.32h5V8.36h-5z"/>
</symbol>
<symbol id="reno-icon-upload"><path d="M3.5 10.82v-5H.18L6 0l5.82 5.82H8.5v5h-5zM.18 14.18V12.5h11.64v1.68H.18z"/>
</symbol>
<symbol id="reno-icon-window-close"><path d="M7.211 6.5l4.609 4.609v1.211h-1.211L6 7.711 1.391 12.32H.18v-1.211L4.789 6.5.18 1.891V.68h1.211L6 5.289 10.609.68h1.211v1.211z"/>
</symbol>
<symbol id="reno-icon-wrap"><path d="M21 5H3v2h18V5M3 19h7v-2H3v2m0-6h15c1 0 2 .43 2 2s-1 2-2 2h-2v-2l-4 3 4 3v-2h2c2.95 0 4-1.27 4-4 0-2.72-1-4-4-4H3v2z"/>
</symbol>
<symbol id="reno-icon-percent"><path d="M7 4a3 3 0 0 1 3 3 3 3 0 0 1-3 3 3 3 0 0 1-3-3 3 3 0 0 1 3-3m10 10a3 3 0 0 1 3 3 3 3 0 0 1-3 3 3 3 0 0 1-3-3 3 3 0 0 1 3-3m3-8.59L5.41 20 4 18.59 18.59 4 20 5.41z"/>
</symbol>
</svg>
