<svg xmlns="http://www.w3.org/2000/svg" width="19" height="17" viewBox="0 0 19 17"><symbol id="icon-book-open-page-variant"><path d="M15 0v9.14l-4.14 3.75V3.75L15 0zM4.61 2.5a9.02 9.02 0 0 1 2.421.254 5.816 5.816 0 0 1 2.149.996V15c.599-.365 1.328-.664 2.187-.898.86-.235 1.654-.352 2.383-.352a9.156 9.156 0 0 1 2.93.39V2.89a6.016 6.016 0 0 1 1.68.86v12.148a.58.58 0 0 1-.157.274.447.447 0 0 1-.254.137.368.368 0 0 1-.215-.02 7.45 7.45 0 0 0-1.914-.684 9.253 9.253 0 0 0-2.09-.195c-.716.013-1.503.13-2.363.352-.86.221-1.588.514-2.187.879a6.197 6.197 0 0 0-2.149-.957 10.267 10.267 0 0 0-2.422-.293 8.77 8.77 0 0 0-2.011.254 9.766 9.766 0 0 0-1.973.683l-.195.04a.443.443 0 0 1-.293-.118.39.39 0 0 1-.137-.313V3.75a5.816 5.816 0 0 1 2.148-.996A9.197 9.197 0 0 1 4.61 2.5z"/></symbol></svg>
