<svg xmlns="http://www.w3.org/2000/svg" width="18" height="17" viewBox="0 0 18 17"><symbol id="icon-close-circle"><path d="M9 .18c2.37.052 4.336.86 5.898 2.422 1.563 1.562 2.37 3.528 2.422 5.898-.052 2.37-.86 4.336-2.422 5.898-1.562 1.563-3.528 2.37-5.898 2.422-2.37-.052-4.336-.86-5.898-2.422C1.539 12.836.732 10.87.68 8.5c.052-2.37.86-4.336 2.422-5.898C4.664 1.039 6.63.232 9 .18zm3.008 4.14L9 7.328 5.992 4.32 4.82 5.492 7.828 8.5 4.82 11.508l1.172 1.172L9 9.672l3.008 3.008 1.172-1.172L10.172 8.5l3.008-3.008-1.172-1.172z"/></symbol></svg>
