<svg xmlns="http://www.w3.org/2000/svg" width="17" height="17" viewBox="0 0 17 17"><symbol id="icon-comment-processing-outline"><path d="M5.82 16.64a.795.795 0 0 1-.586-.234A.795.795 0 0 1 5 15.82v-2.5H1.64c-.468 0-.859-.162-1.171-.488A1.656 1.656 0 0 1 0 11.641v-10C0 1.17.156.78.469.469.78.156 1.172 0 1.64 0H15c.469 0 .86.156 1.172.469.312.312.469.703.469 1.172v10c0 .468-.157.866-.47 1.191A1.557 1.557 0 0 1 15 13.32H9.922l-3.086 3.086a.886.886 0 0 1-.586.235h-.43zm.82-5v2.579L9.22 11.64H15v-10H1.64v10h5zM12.5 7.5h-1.68V5.82h1.68V7.5zm-3.36 0H7.5V5.82h1.64V7.5zm-3.32 0H4.14V5.82h1.68V7.5z"/></symbol></svg>
