<svg xmlns="http://www.w3.org/2000/svg" width="16" height="19" viewBox="0 0 16 19"><symbol id="icon-content-duplicate"><path d="M7.5 13.36H1.64a1.734 1.734 0 0 1-1.171-.508C.156 12.539 0 12.148 0 11.68v-10C0 1.21.156.82.469.508A1.734 1.734 0 0 1 1.64 0h10v1.68h-10v10H7.5V10l3.32 2.5L7.5 15v-1.64zm6.64 3.32V5H5v5H3.32V5c0-.469.163-.86.489-1.172A1.656 1.656 0 0 1 5 3.36h9.14c.47 0 .867.157 1.192.47.326.312.488.702.488 1.171v11.68c0 .468-.162.86-.488 1.172a1.809 1.809 0 0 1-1.191.507H5a1.809 1.809 0 0 1-1.191-.507 1.557 1.557 0 0 1-.489-1.172V15H5v1.68h9.14z"/></symbol></svg>
