<svg xmlns="http://www.w3.org/2000/svg" width="4" height="15" viewBox="0 0 4 15"><symbol id="icon-dots-vertical"><path d="M2 10.82c.469.026.86.196 1.172.508.312.313.469.703.469 1.172s-.157.86-.47 1.172c-.312.312-.702.469-1.171.469-.469 0-.86-.157-1.172-.47C.516 13.36.36 12.97.36 12.5c0-.469.157-.86.47-1.172A1.734 1.734 0 0 1 2 10.82zm0-5c.469.026.86.196 1.172.508.312.313.469.703.469 1.172s-.157.86-.47 1.172C2.86 8.984 2.47 9.14 2 9.14c-.469 0-.86-.157-1.172-.47C.516 8.36.36 7.97.36 7.5c0-.469.157-.86.47-1.172A1.734 1.734 0 0 1 2 5.82zm0-5c.469.026.86.196 1.172.508.312.313.469.703.469 1.172s-.157.86-.47 1.172C2.86 3.984 2.47 4.14 2 4.14c-.469 0-.86-.157-1.172-.47C.516 3.36.36 2.97.36 2.5c0-.469.157-.86.47-1.172A1.734 1.734 0 0 1 2 .82z"/></symbol></svg>
