<svg xmlns="http://www.w3.org/2000/svg" width="20" height="16" viewBox="0 0 20 16"><symbol id="icon-eye-off"><path d="M9.844 5H10c.703.026 1.29.273 1.758.742.469.469.716 1.055.742 1.758v.117L9.844 5zm-3.555.664A4.457 4.457 0 0 0 5.82 7.5c.026 1.172.437 2.155 1.23 2.95.795.793 1.778 1.204 2.95 1.23a4.457 4.457 0 0 0 1.836-.47l-1.29-1.288A1.982 1.982 0 0 1 10 10c-.703-.026-1.29-.273-1.758-.742-.469-.469-.716-1.055-.742-1.758 0-.182.026-.365.078-.547L6.29 5.664zm-4.61-4.61L2.735 0 17.5 14.766l-1.055 1.054-2.812-2.773c-1.12.469-2.33.703-3.633.703-2.11-.026-3.978-.612-5.605-1.758A10.014 10.014 0 0 1 .82 7.5c.677-1.693 1.72-3.086 3.125-4.18l-.39-.351L1.68 1.055zM10 3.32a4.806 4.806 0 0 0-1.523.313L6.68 1.836A9.378 9.378 0 0 1 10 1.25c2.11.026 3.978.612 5.605 1.758A10.014 10.014 0 0 1 19.18 7.5a10.159 10.159 0 0 1-2.89 3.945l-2.423-2.422c.209-.468.313-.976.313-1.523-.026-1.172-.437-2.155-1.23-2.95-.795-.793-1.778-1.204-2.95-1.23z"/></symbol></svg>
