<svg xmlns="http://www.w3.org/2000/svg" width="20" height="13" viewBox="0 0 20 13"><symbol id="icon-eye"><path d="M10 4c.703.026 1.29.273 1.758.742.469.469.703 1.055.703 1.758 0 .703-.234 1.29-.703 1.758-.469.469-1.055.703-1.758.703-.703 0-1.29-.234-1.758-.703-.469-.469-.703-1.055-.703-1.758 0-.703.234-1.29.703-1.758C8.711 4.273 9.297 4.026 10 4zm0 6.68c1.172-.026 2.155-.437 2.95-1.23.793-.795 1.204-1.778 1.23-2.95-.026-1.172-.437-2.155-1.23-2.95-.795-.793-1.778-1.204-2.95-1.23-1.172.026-2.155.437-2.95 1.23-.793.795-1.204 1.778-1.23 2.95.026 1.172.437 2.155 1.23 2.95.795.793 1.778 1.204 2.95 1.23zM10 .25c2.11.026 3.978.612 5.605 1.758A10.014 10.014 0 0 1 19.18 6.5a10.014 10.014 0 0 1-3.575 4.492C13.978 12.138 12.11 12.724 10 12.75c-2.11-.026-3.978-.612-5.605-1.758A10.014 10.014 0 0 1 .82 6.5a10.014 10.014 0 0 1 3.575-4.492C6.022.862 7.89.276 10 .25z"/></symbol></svg>
