<svg xmlns="http://www.w3.org/2000/svg" width="18" height="17" viewBox="0 0 18 17"><symbol id="icon-information-outline"><path d="M8.18 6V4.32h1.64V6H8.18zM9 15.18c1.875-.052 3.444-.71 4.707-1.973 1.263-1.263 1.92-2.832 1.973-4.707-.052-1.875-.71-3.444-1.973-4.707C12.444 2.53 10.875 1.873 9 1.82c-1.875.052-3.444.71-4.707 1.973C3.03 5.056 2.373 6.625 2.32 8.5c.052 1.875.71 3.444 1.973 4.707C5.556 14.47 7.125 15.127 9 15.18zm0-15c2.37.052 4.336.86 5.898 2.422 1.563 1.562 2.37 3.528 2.422 5.898-.052 2.37-.86 4.336-2.422 5.898-1.562 1.563-3.528 2.37-5.898 2.422-2.37-.052-4.336-.86-5.898-2.422C1.539 12.836.732 10.87.68 8.5c.052-2.37.86-4.336 2.422-5.898C4.664 1.039 6.63.232 9 .18zm-.82 12.5v-5h1.64v5H8.18z"/></symbol></svg>
