<svg xmlns="http://www.w3.org/2000/svg" width="16" height="15" viewBox="0 0 16 15"><symbol id="icon-magnify"><path d="M5.93 0c1.536.026 2.812.553 3.828 1.582 1.015 1.029 1.536 2.311 1.562 3.848 0 .677-.11 1.315-.332 1.914a4.993 4.993 0 0 1-.957 1.601l.235.235h.664l4.14 4.14-1.25 1.25-4.14-4.14v-.664l-.235-.235a4.993 4.993 0 0 1-1.601.957 5.477 5.477 0 0 1-1.914.332c-1.537-.026-2.82-.547-3.848-1.562C1.053 8.242.526 6.966.5 5.43c.026-1.537.553-2.82 1.582-3.848C3.111.553 4.393.026 5.93 0zm0 1.68c-1.068.026-1.953.39-2.657 1.093C2.57 3.477 2.22 4.362 2.22 5.43c0 1.067.351 1.953 1.054 2.656.704.703 1.589 1.055 2.657 1.055 1.067 0 1.953-.352 2.656-1.055.703-.703 1.055-1.589 1.055-2.656 0-1.068-.352-1.953-1.055-2.657C7.883 2.07 6.997 1.706 5.93 1.68z"/></symbol></svg>
