<svg xmlns="http://www.w3.org/2000/svg" width="18" height="14" viewBox="0 0 18 14"><symbol id="icon-priority-low"><path d="M10.68.68h6.64v1.64h-6.64V.68zm0 4.57h6.64v1.68h-6.64V5.25zm0 4.57h6.64v1.68h-6.64V9.82zm-10-3.75c.026-1.51.553-2.78 1.582-3.808C3.29 1.233 4.56.706 6.07.68H9v1.64H6.07c-1.067.026-1.953.39-2.656 1.094-.703.703-1.055 1.589-1.055 2.656 0 1.068.352 1.953 1.055 2.657.703.703 1.589 1.067 2.656 1.093h.43V8.18l2.5 2.5-2.5 2.5V11.5h-.43c-1.51-.052-2.78-.586-3.808-1.602C1.233 8.883.706 7.607.68 6.07z"/></symbol></svg>
