<svg xmlns="http://www.w3.org/2000/svg" width="18" height="17" viewBox="0 0 18 17"><symbol id="icon-settings"><path d="M9 11.43c.833-.026 1.523-.313 2.07-.86.547-.547.82-1.237.82-2.07 0-.833-.273-1.523-.82-2.07-.547-.547-1.237-.82-2.07-.82-.833 0-1.523.273-2.07.82-.547.547-.82 1.237-.82 2.07 0 .833.273 1.523.82 2.07.547.547 1.237.834 2.07.86zm6.21-2.11l1.759 1.367c.156.157.182.339.078.547l-1.68 2.891c-.104.182-.273.234-.508.156l-2.07-.82a5.386 5.386 0 0 1-1.406.82l-.313 2.188c-.052.234-.182.351-.39.351H7.32c-.208 0-.338-.117-.39-.351l-.313-2.188a5.386 5.386 0 0 1-1.406-.82l-2.07.82c-.235.078-.404.026-.508-.156l-1.68-2.89c-.104-.209-.078-.391.078-.547L2.79 9.32a8.25 8.25 0 0 1-.039-.82c0-.286.013-.56.04-.82L1.03 6.313C.875 6.155.85 5.973.953 5.766l1.68-2.891c.104-.182.273-.234.508-.156l2.07.82a5.386 5.386 0 0 1 1.406-.82L6.93.53c.052-.234.182-.351.39-.351h3.36c.208 0 .338.117.39.351l.313 2.188c.52.208.99.482 1.406.82l2.07-.82c.235-.078.404-.026.508.156l1.68 2.89c.104.209.078.391-.078.548L15.21 7.68c.026.26.039.534.039.82 0 .286-.013.56-.04.82z"/></symbol></svg>
