<svg xmlns="http://www.w3.org/2000/svg" width="17" height="16" viewBox="0 0 17 16"><symbol id="icon-table-large"><path d="M1.64 0H15c.469 0 .86.163 1.172.488.312.326.469.723.469 1.192v12.5c0 .468-.157.86-.47 1.172-.312.312-.702.468-1.171.468H1.64c-.468 0-.859-.156-1.171-.468C.156 15.039 0 14.648 0 14.18V1.68C0 1.21.156.814.469.488A1.557 1.557 0 0 1 1.64 0zm0 3.32v2.5H5v-2.5H1.64zm5 0v2.5H10v-2.5H6.64zM15 5.82v-2.5h-3.36v2.5H15zM1.64 7.5V10H5V7.5H1.64zm0 6.68H5v-2.5H1.64v2.5zm5-6.68V10H10V7.5H6.64zm0 6.68H10v-2.5H6.64v2.5zm8.36 0v-2.5h-3.36v2.5H15zm0-6.68h-3.36V10H15V7.5z"/></symbol></svg>
